<svg xmlns="http://www.w3.org/2000/svg" width="150" height="150" viewBox="0 0 150 150">
  <style>
    :root {
      --arrow-color-1: #2B66AC;
      --arrow-color-2: #2B66AC;
      --clock-color: #B72D3A;
    }
  </style>
  <g id="clock-arrows">
    <g id="arrows" transform="translate(9.444 22.258)">
      <path d="M95.451,44.282h33.262a2.115,2.115,0,0,1,1.624,3.468L113.707,67.715a2.115,2.115,0,0,1-3.248,0L93.827,47.751a2.115,2.115,0,0,1,1.624-3.468M2.4,61.201H35.661a2.115,2.115,0,0,0,1.624-3.468L20.654,37.768a2.115,2.115,0,0,0-3.248,0L.774,57.733A2.115,2.115,0,0,0,2.4,61.201" fill="var(--arrow-color-1)"/>
      <path d="M65.556,10.445A42.2,42.2,0,0,0,32.928,25.824a4.23,4.23,0,1,1-6.522-5.38,50.773,50.773,0,0,1,89.2,23.839h-8.6A42.3,42.3,0,0,0,65.556,10.445M24.105,61.2A42.314,42.314,0,0,0,98.184,79.659a4.23,4.23,0,1,1,6.522,5.38A50.773,50.773,0,0,1,15.502,61.2Z" fill="var(--arrow-color-2)" fill-rule="evenodd"/>
    </g>
    <g id="clock" transform="translate(53.588 53.584)">
      <path d="M22.798,2.728Q22.11,2.677,21.42,2.677V0q.789,0,1.577.059Zm5.364,1.2a18.737,18.737,0,0,0-2.637-.8L26.112.519a21.107,21.107,0,0,1,3.014.915Zm3.667,1.9q-.574-.383-1.175-.723l1.32-2.329a21.413,21.413,0,0,1,2.62,1.751L32.948,6.643q-.544-.425-1.119-.808Zm4.909,4.791a18.736,18.736,0,0,0-1.748-2.131l1.938-1.847a22.315,22.315,0,0,1,2,2.436Zm1.991,3.619q-.263-.637-.573-1.253l2.39-1.2a21.413,21.413,0,0,1,1.2,2.912l-2.543.838q-.216-.655-.479-1.293m1.419,6.71a18.736,18.736,0,0,0-.268-2.744l2.637-.455a21.9,21.9,0,0,1,.31,3.132Zm-.351,4.117q.134-.68.217-1.365l2.658.329a21.413,21.413,0,0,1-.616,3.092l-2.58-.715q.185-.661.321-1.341M37.25,31.438a18.908,18.908,0,0,0,1.3-2.43l2.446,1.084a21.6,21.6,0,0,1-1.486,2.778Zm-2.58,3.225q.49-.49.937-1.012L37.635,35.4q-.515.6-1.073,1.156Z" fill="var(--clock-color)"/>
      <path d="M21.42,2.677a18.737,18.737,0,1,0,13.25,31.986l1.892,1.892A21.416,21.416,0,1,1,21.42,0Z" fill="var(--clock-color)"/>
      <path d="M20.081,8.03a1.338,1.338,0,0,1,1.339,1.338V23.314l8.694,4.968a1.338,1.338,0,0,1-1.328,2.323L19.418,25.252A1.338,1.338,0,0,1,18.743,24.09V9.368A1.338,1.338,0,0,1,20.081,8.03" fill="var(--clock-color)"/>
    </g>
  </g>
</svg>
